<?xml version="1.0" encoding="UTF-8"?>
<svg xmlns="http://www.w3.org/2000/svg" width="480" height="636">
<rect width="100%" height="100%" fill="#ffffff"/>
<text x="240" y="36" text-anchor="middle" font-size="16" font-family="sans-serif" font-size="18" fill="#111827">编码器-解码器架构数据流管道图</text>
<defs><marker id="arrow" markerWidth="10" markerHeight="10" refX="5" refY="3" orient="auto"><path d="M0,0 L0,6 L9,3 z" fill="#111827"/></marker></defs>
<rect x="130" y="60" width="220" height="50" rx="6" fill="#eef2ff" stroke="#111827" stroke-width="2"/>
<text x="240" y="90" text-anchor="middle" font-size="14" font-family="sans-serif" fill="#111827">输入数据模块（带文本或序列图标）</text>
<line x1="240" y1="110" x2="240" y2="146" stroke="#111827" stroke-width="2" marker-end="url(#arrow)"/>
<rect x="130" y="146" width="220" height="50" rx="6" fill="#eef2ff" stroke="#111827" stroke-width="2"/>
<text x="240" y="176" text-anchor="middle" font-size="14" font-family="sans-serif" fill="#111827">编码器模块（多层堆叠方块，标注“Encoder”）</text>
<line x1="240" y1="196" x2="240" y2="232" stroke="#111827" stroke-width="2" marker-end="url(#arrow)"/>
<rect x="130" y="232" width="220" height="50" rx="6" fill="#eef2ff" stroke="#111827" stroke-width="2"/>
<text x="240" y="262" text-anchor="middle" font-size="14" font-family="sans-serif" fill="#111827">解码器模块（多层堆叠方块，标注“Decoder”）</text>
<line x1="240" y1="282" x2="240" y2="318" stroke="#111827" stroke-width="2" marker-end="url(#arrow)"/>
<rect x="130" y="318" width="220" height="50" rx="6" fill="#eef2ff" stroke="#111827" stroke-width="2"/>
<text x="240" y="348" text-anchor="middle" font-size="14" font-family="sans-serif" fill="#111827">输出结果模块（带生成文本或预测标签）</text>
<line x1="240" y1="368" x2="240" y2="404" stroke="#111827" stroke-width="2" marker-end="url(#arrow)"/>
<rect x="130" y="404" width="220" height="50" rx="6" fill="#eef2ff" stroke="#111827" stroke-width="2"/>
<text x="240" y="434" text-anchor="middle" font-size="14" font-family="sans-serif" fill="#111827">箭头连接线（从左到右连接各模块，标注操作标签如“Embedding”、</text>
<line x1="240" y1="454" x2="240" y2="490" stroke="#111827" stroke-width="2" marker-end="url(#arrow)"/>
<rect x="130" y="490" width="220" height="50" rx="6" fill="#eef2ff" stroke="#111827" stroke-width="2"/>
<text x="240" y="520" text-anchor="middle" font-size="14" font-family="sans-serif" fill="#111827">高亮橙色强调关键模块（如编码器或解码器中的注意力机制子模块）</text>
</svg>